# xmcd
#
# Track frame offsets: 
#        150
#        27431
#        82234
#        154639
#
# Disc length: 3243 seconds
#
# Revision: 1
# Processed by: cddbd v1.5.2PL0 Copyright (c) Steve Scherf et al.
# Submitted via: ExactAudioCopyFreeDBPlugin 1.0
#
DISCID=290ca904
DTITLE=Return To Forever - The Mothership Returns [CD1)
DYEAR=1900
DGENRE=Jazz
TTITLE0=Medieval Overture
TTITLE1=Senor Mouse
TTITLE2=The Shadow of Lo-Sorceress
TTITLE3=Renaissance
EXTD=
EXTT0=
EXTT1=
EXTT2=
EXTT3=
PLAYORDER=
